<svg width="54" height="40" viewBox="0 0 54 40" fill="none" xmlns="http://www.w3.org/2000/svg">
<path d="M17.3334 19.9998C17.3334 14.4765 25.1434 9.99983 30.6667 9.99983V6.6665C27.1305 6.6665 23.7391 8.07126 21.2386 10.5717C18.7381 13.0722 17.3334 16.4636 17.3334 19.9998Z" fill="url(#paint0_linear_1022_431)"/>
<path d="M41.7267 3.33336H48.4433C51.51 3.33336 54 5.82002 54 8.89002V31.11C54 34.1766 51.5133 36.6666 48.4433 36.6666H41.7267C38.4507 38.8469 34.6018 40.0068 30.6667 40C26.7316 40.0068 22.8827 38.8469 19.6067 36.6666H6.22341C3.15674 36.6666 0.666748 34.18 0.666748 31.11V8.89002C0.666748 5.82335 3.15341 3.33336 6.22341 3.33336H7.3334C7.3334 2.4493 7.68459 1.60146 8.30971 0.976339C8.93483 0.351219 9.78268 3.03211e-05 10.6667 3.03211e-05H14.0001C14.8841 3.03211e-05 15.732 0.351219 16.3571 0.976339C16.9822 1.60146 17.3334 2.4493 17.3334 3.33336H19.6067C22.8827 1.15315 26.7316 -0.00683758 30.6667 3.03211e-05C34.7567 3.03211e-05 38.5567 1.22669 41.7267 3.33336ZM7.3334 8.33335C7.3334 7.89132 7.15781 7.4674 6.84525 7.15484C6.53269 6.84228 6.10877 6.66669 5.66674 6.66669C5.22471 6.66669 4.80079 6.84228 4.48823 7.15484C4.17567 7.4674 4.00008 7.89132 4.00008 8.33335C4.00008 8.77538 4.17567 9.1993 4.48823 9.51186C4.80079 9.82442 5.22471 10 5.66674 10C6.10877 10 6.53269 9.82442 6.84525 9.51186C7.15781 9.1993 7.3334 8.77538 7.3334 8.33335ZM47.3333 20C47.3333 15.5797 45.5774 11.3405 42.4518 8.2149C39.3262 5.0893 35.087 3.33336 30.6667 3.33336C26.2464 3.33336 22.0072 5.0893 18.8816 8.2149C15.756 11.3405 14.0001 15.5797 14.0001 20C14.0001 24.4203 15.756 28.6595 18.8816 31.7851C22.0072 34.9107 26.2464 36.6666 30.6667 36.6666C35.087 36.6666 39.3262 34.9107 42.4518 31.7851C45.5774 28.6595 47.3333 24.4203 47.3333 20Z" fill="url(#paint1_linear_1022_431)"/>
<defs>
<linearGradient id="paint0_linear_1022_431" x1="16.5887" y1="6.80835" x2="33.4002" y2="15.4304" gradientUnits="userSpaceOnUse">
<stop stop-color="#3B3BE0"/>
<stop offset="1" stop-color="#9D00EF"/>
</linearGradient>
<linearGradient id="paint1_linear_1022_431" x1="-2.31197" y1="0.425531" x2="55.5602" y2="39.9999" gradientUnits="userSpaceOnUse">
<stop stop-color="#3B3BE0"/>
<stop offset="1" stop-color="#9D00EF"/>
</linearGradient>
</defs>
</svg>
