<svg width="49" height="49" viewBox="0 0 49 49" fill="none" xmlns="http://www.w3.org/2000/svg">
<path d="M21.6457 2.2265C22.3899 -0.744121 26.6069 -0.744121 27.3542 2.2265L27.5716 3.10238C27.6989 3.61139 27.96 4.07708 28.3279 4.45113C28.6958 4.82517 29.1571 5.09395 29.664 5.22957C30.1708 5.36518 30.7047 5.36269 31.2102 5.22236C31.7158 5.08203 32.1746 4.80896 32.539 4.4315L33.1668 3.78532C35.2953 1.58338 38.9488 3.69344 38.1066 6.6365L37.8616 7.50625C37.7174 8.01049 37.7107 8.54413 37.8421 9.05184C37.9736 9.55956 38.2385 10.0229 38.6094 10.3937C38.9802 10.7646 39.4435 11.0295 39.9512 11.1609C40.4589 11.2924 40.9926 11.2857 41.4968 11.1414L42.3635 10.8934C45.3035 10.0512 47.4166 13.7048 45.2147 15.8332L44.5685 16.461C44.191 16.8254 43.918 17.2842 43.7776 17.7898C43.6373 18.2953 43.6348 18.8292 43.7704 19.336C43.9061 19.8429 44.1748 20.3042 44.5489 20.6721C44.9229 21.04 45.3886 21.3012 45.8976 21.4284L46.7735 21.6458C49.7441 22.39 49.7441 26.6071 46.7735 27.3543L45.8976 27.5718C45.3886 27.699 44.9229 27.9601 44.5489 28.328C44.1748 28.6959 43.9061 29.1572 43.7704 29.6641C43.6348 30.1709 43.6373 30.7048 43.7776 31.2104C43.918 31.7159 44.191 32.1747 44.5685 32.5391L45.2147 33.1669C47.4166 35.2954 45.3066 38.9489 42.3635 38.1068L41.4938 37.8618C40.9895 37.7175 40.4559 37.7108 39.9482 37.8423C39.4405 37.9737 38.9772 38.2386 38.6063 38.6095C38.2355 38.9803 37.9706 39.4436 37.8391 39.9514C37.7076 40.4591 37.7143 40.9927 37.8586 41.4969L38.1066 42.3636C38.9488 45.3036 35.2953 47.4168 33.1668 45.2148L32.539 44.5686C32.1746 44.1912 31.7158 43.9181 31.2102 43.7778C30.7047 43.6374 30.1708 43.6349 29.664 43.7706C29.1571 43.9062 28.6958 44.175 28.3279 44.549C27.96 44.9231 27.6989 45.3887 27.5716 45.8978L27.3542 46.7736C26.61 49.7443 22.3929 49.7443 21.6457 46.7736L21.4283 45.8978C21.301 45.3887 21.0399 44.9231 20.672 44.549C20.3041 44.175 19.8428 43.9062 19.3359 43.7706C18.8291 43.6349 18.2952 43.6374 17.7896 43.7778C17.2841 43.9181 16.8253 44.1912 16.4609 44.5686L15.8331 45.2148C13.7046 47.4168 10.0511 45.3067 10.8933 42.3636L11.1383 41.4939C11.2822 40.99 11.2889 40.4567 11.1575 39.9494C11.0261 39.442 10.7616 38.979 10.3911 38.6083C10.0207 38.2375 9.55791 37.9725 9.05066 37.8407C8.54342 37.709 8.01017 37.7152 7.50613 37.8587L6.63638 38.1068C3.69638 38.9489 1.58326 35.2954 3.78519 33.1669L4.43138 32.5391C4.80884 32.1747 5.08191 31.7159 5.22224 31.2104C5.36257 30.7048 5.36506 30.1709 5.22944 29.6641C5.09383 29.1572 4.82505 28.6959 4.451 28.328C4.07696 27.9601 3.61127 27.699 3.10226 27.5718L2.22638 27.3543C-0.744243 26.6101 -0.744243 22.3931 2.22638 21.6458L3.10226 21.4284C3.61127 21.3012 4.07696 21.04 4.451 20.6721C4.82505 20.3042 5.09383 19.8429 5.22944 19.336C5.36506 18.8292 5.36257 18.2953 5.22224 17.7898C5.08191 17.2842 4.80884 16.8254 4.43138 16.461L3.78519 15.8332C1.58326 13.7048 3.69332 10.0512 6.63638 10.8934L7.50613 11.1384C8.01005 11.2823 8.5433 11.289 9.05065 11.1576C9.558 11.0263 10.021 10.7617 10.3918 10.3912C10.7625 10.0208 11.0275 9.55803 11.1593 9.05079C11.2911 8.54355 11.2849 8.0103 11.1413 7.50625L10.8933 6.6365C10.0511 3.6965 13.7046 1.58338 15.8331 3.78532L16.4609 4.4315C16.8253 4.80896 17.2841 5.08203 17.7896 5.22236C18.2952 5.36269 18.8291 5.36518 19.3359 5.22957C19.8428 5.09395 20.3041 4.82517 20.672 4.45113C21.0399 4.07708 21.301 3.61139 21.4283 3.10238L21.6457 2.2265ZM39.7298 26.0313H25.2656L16.5864 37.6045C18.7972 38.9398 21.3099 39.6939 23.8905 39.7968C26.4712 39.8996 29.0359 39.3477 31.3459 38.1926C33.6558 37.0375 35.636 35.3166 37.1019 33.1902C38.5678 31.0638 39.4718 28.6011 39.7298 26.0313ZM39.7298 22.9688C39.4718 20.399 38.5678 17.9363 37.1019 15.8099C35.636 13.6836 33.6558 11.9627 31.3459 10.8075C29.0359 9.6524 26.4712 9.10055 23.8905 9.20337C21.3099 9.3062 18.7972 10.0604 16.5864 11.3956L25.2656 22.9719L39.7298 22.9688ZM14.1395 13.2362C12.5782 14.6673 11.332 16.408 10.4805 18.3473C9.62892 20.2866 9.19065 22.382 9.19357 24.5001C9.19357 28.956 11.0984 32.9679 14.1395 35.7639L22.5859 24.5001L14.1395 13.2362Z" fill="url(#paint0_linear_1022_427)"/>
<defs>
<linearGradient id="paint0_linear_1022_427" x1="-0.00158644" y1="5.60632" x2="49.0015" y2="43.3938" gradientUnits="userSpaceOnUse">
<stop stop-color="#3B3BE0"/>
<stop offset="1" stop-color="#9D00EF"/>
</linearGradient>
</defs>
</svg>
