<?xml version="1.0" encoding="UTF-8"?>
<svg id="Camada_2" xmlns="http://www.w3.org/2000/svg" viewBox="0 0 164.8 34.12">
  <defs>
    <style>
      .cls-1 {
        fill: #fff;
      }
    </style>
  </defs>
  <g id="Camada_1-2" data-name="Camada_1">
    <g>
      <g>
        <polygon class="cls-1" points="29.16 .12 5.16 34.12 0 34.12 20.57 5.01 6.05 5.01 1.15 .12 29.16 .12"/>
        <polygon class="cls-1" points="32.71 29.23 37.6 34.12 9.6 34.12 33.59 .12 38.76 .12 18.18 29.23 32.71 29.23"/>
      </g>
      <path class="cls-1" d="M49.95,6h24.53V0h-24.53c-4.99,0-9.03,4.08-9.03,9.08v15.45c0,4.99,4.03,9.08,9.03,9.08h24.53v-6h-24.53c-1.68,0-3.07-1.39-3.07-3.08v-6.33h21.6v-6.01h-21.6v-3.11c0-1.68,1.39-3.07,3.07-3.07Z"/>
      <path class="cls-1" d="M164.8,0l-12.97,16.8-.72.91v15.84h-6.01v-15.74l-.82-1.01-8.3-10.75h-11.34v27.6h-6V6.05h-30.31c-1.68,0-3.07,1.39-3.07,3.07v.2c0,1.68,1.39,3.07,3.07,3.07h12.1c3.12,0,5.9,1.34,7.83,3.45.14.14.24.29.38.43,1.49,1.82,2.4,4.18,2.4,6.72,0,5.85-4.75,10.61-10.61,10.61h-10.51c-5.85,0-10.6-4.75-10.6-10.61h6c0,2.54,2.06,4.61,4.6,4.61h10.51c2.54,0,4.65-2.07,4.65-4.61s-2.11-4.61-4.65-4.61h-12.1c-2.44,0-4.65-.96-6.29-2.54-.43-.43-.82-.91-1.15-1.44-1.01-1.44-1.58-3.22-1.58-5.14v-.19c0-4.99,4.03-9.08,9.02-9.08h50.56l9.18,11.91,9.18-11.91h7.53Z"/>
    </g>
  </g>
</svg>