<svg width="116" height="38" viewBox="0 0 116 38" fill="none" xmlns="http://www.w3.org/2000/svg">
<path d="M10.6209 17.6774C11.2676 15.264 13.7483 12.7833 16.1617 12.1366L31.2076 8.10441C33.621 7.45766 35.0531 8.88977 34.4063 11.3031L30.3742 26.3491C29.7274 28.7624 27.2467 31.2431 24.8334 31.8899L9.78744 35.922C7.37408 36.5688 5.94197 35.1367 6.58873 32.7233L10.6209 17.6774Z" fill="#CDD0D8"/>
<path d="M4.58908 11.6456C5.23583 9.23229 7.71654 6.75158 10.1299 6.10483L25.1758 2.07267C27.5892 1.42592 29.0213 2.85803 28.3746 5.27139L24.3424 20.3173C23.6957 22.7307 21.2149 25.2114 18.8016 25.8581L3.75564 29.8903C1.34229 30.537 -0.0898271 29.1049 0.556927 26.6916L4.58908 11.6456Z" fill="#CDD0D8"/>
<path d="M48.3868 24.8397H53.5623V26.8659H45.8761V11.5596H48.3868V24.8397Z" fill="#CDD0D8"/>
<path d="M54.825 20.7434C54.825 19.5247 55.0746 18.4456 55.5738 17.5059C56.0877 16.5662 56.7778 15.8395 57.644 15.3256C58.525 14.797 59.494 14.5327 60.5511 14.5327C61.5055 14.5327 62.335 14.7236 63.0398 15.1053C63.7592 15.4724 64.3318 15.9349 64.7576 16.4928V14.7309H67.2903V26.8659H64.7576V25.0599C64.3318 25.6326 63.7519 26.1097 63.0177 26.4915C62.2836 26.8732 61.4467 27.0641 60.5071 27.0641C59.4646 27.0641 58.5103 26.7998 57.644 26.2712C56.7778 25.728 56.0877 24.9792 55.5738 24.0248C55.0746 23.0558 54.825 21.962 54.825 20.7434ZM64.7576 20.7874C64.7576 19.9505 64.5814 19.2237 64.229 18.6071C63.8913 17.9904 63.4435 17.5206 62.8856 17.1976C62.3277 16.8746 61.7257 16.7131 61.0797 16.7131C60.4337 16.7131 59.8317 16.8746 59.2738 17.1976C58.7158 17.5059 58.2607 17.9684 57.9083 18.5851C57.5706 19.187 57.4018 19.9065 57.4018 20.7434C57.4018 21.5802 57.5706 22.3144 57.9083 22.9457C58.2607 23.577 58.7158 24.0616 59.2738 24.3992C59.8464 24.7223 60.4483 24.8838 61.0797 24.8838C61.7257 24.8838 62.3277 24.7223 62.8856 24.3992C63.4435 24.0762 63.8913 23.6064 64.229 22.9897C64.5814 22.3584 64.7576 21.6243 64.7576 20.7874Z" fill="#CDD0D8"/>
<path d="M81.5116 14.7309L74.0677 32.5699H71.4689L73.9355 26.6677L69.1564 14.7309H71.9534L75.367 23.9808L78.9128 14.7309H81.5116Z" fill="#CDD0D8"/>
<path d="M94.5281 20.5011C94.5281 20.9562 94.4988 21.3673 94.44 21.7344H85.1682C85.2416 22.7034 85.6013 23.4816 86.2473 24.0689C86.8933 24.6562 87.6862 24.9498 88.6259 24.9498C89.9766 24.9498 90.931 24.3846 91.4889 23.254H94.1978C93.8307 24.3699 93.1627 25.2875 92.1937 26.007C91.2393 26.7117 90.05 27.0641 88.6259 27.0641C87.466 27.0641 86.4235 26.8071 85.4985 26.2933C84.5882 25.7647 83.8688 25.0306 83.3402 24.0909C82.8263 23.1366 82.5694 22.0354 82.5694 20.7874C82.5694 19.5394 82.819 18.4456 83.3182 17.5059C83.8321 16.5516 84.5442 15.8174 85.4545 15.3036C86.3795 14.7897 87.4366 14.5327 88.6259 14.5327C89.7711 14.5327 90.7915 14.7823 91.6871 15.2815C92.5827 15.7807 93.2801 16.4855 93.7793 17.3958C94.2785 18.2914 94.5281 19.3265 94.5281 20.5011ZM91.9073 19.7082C91.8927 18.7833 91.5623 18.0418 90.9163 17.4839C90.2703 16.926 89.4701 16.647 88.5157 16.647C87.6495 16.647 86.908 16.926 86.2914 17.4839C85.6747 18.0271 85.3077 18.7686 85.1902 19.7082H91.9073Z" fill="#CDD0D8"/>
<path d="M99.5096 16.4928C99.8766 15.8762 100.361 15.399 100.963 15.0613C101.58 14.7089 102.307 14.5327 103.143 14.5327V17.1315H102.505C101.521 17.1315 100.772 17.3811 100.258 17.8803C99.7592 18.3795 99.5096 19.2458 99.5096 20.4791V26.8659H96.9989V14.7309H99.5096V16.4928Z" fill="#CDD0D8"/>
<path d="M109.856 27.0641C108.902 27.0641 108.043 26.8952 107.279 26.5575C106.53 26.2052 105.936 25.7353 105.495 25.148C105.055 24.5461 104.82 23.878 104.791 23.1439H107.389C107.433 23.6578 107.676 24.0909 108.116 24.4433C108.571 24.781 109.137 24.9498 109.812 24.9498C110.517 24.9498 111.06 24.8177 111.442 24.5534C111.838 24.2744 112.036 23.9221 112.036 23.4963C112.036 23.0411 111.816 22.7034 111.376 22.4832C110.95 22.263 110.267 22.0207 109.327 21.7564C108.417 21.5068 107.676 21.2646 107.103 21.0297C106.53 20.7947 106.031 20.435 105.605 19.9505C105.194 19.466 104.989 18.8273 104.989 18.0345C104.989 17.3884 105.18 16.8012 105.561 16.2726C105.943 15.7293 106.486 15.3036 107.191 14.9952C107.911 14.6869 108.733 14.5327 109.658 14.5327C111.038 14.5327 112.146 14.8851 112.983 15.5899C113.835 16.2799 114.29 17.2269 114.349 18.4309H111.838C111.794 17.8876 111.574 17.4545 111.177 17.1315C110.781 16.8085 110.245 16.647 109.57 16.647C108.909 16.647 108.402 16.7718 108.05 17.0214C107.698 17.271 107.521 17.6013 107.521 18.0124C107.521 18.3355 107.639 18.6071 107.874 18.8273C108.109 19.0475 108.395 19.2237 108.733 19.3559C109.07 19.4733 109.57 19.6275 110.23 19.8184C111.111 20.0533 111.831 20.2955 112.389 20.5451C112.961 20.7801 113.453 21.1324 113.864 21.6023C114.275 22.0721 114.488 22.6961 114.503 23.4743C114.503 24.1643 114.312 24.781 113.93 25.3242C113.549 25.8675 113.005 26.2933 112.301 26.6016C111.61 26.9099 110.796 27.0641 109.856 27.0641Z" fill="#CDD0D8"/>
</svg>
