<svg width="11" height="11" viewBox="0 0 11 11" fill="none" xmlns="http://www.w3.org/2000/svg">
<path fill-rule="evenodd" clip-rule="evenodd" d="M11 0.774632C11 0.569187 10.9204 0.372156 10.7787 0.226885C10.637 0.081613 10.4448 0 10.2444 0H1.17725C0.976849 0 0.784661 0.081613 0.642959 0.226885C0.501257 0.372156 0.421649 0.569187 0.421649 0.774632C0.421649 0.980077 0.501257 1.17711 0.642959 1.32238C0.784661 1.46765 0.976849 1.54926 1.17725 1.54926H8.42039L0.221588 9.67595C0.151336 9.74797 0.0956093 9.83347 0.0575891 9.92758C0.0195688 10.0217 0 10.1225 0 10.2244C0 10.3262 0.0195688 10.4271 0.0575891 10.5212C0.0956093 10.6153 0.151336 10.7008 0.221588 10.7728C0.291841 10.8449 0.375242 10.902 0.467031 10.941C0.55882 10.9799 0.657199 11 0.756551 11C0.855903 11 0.954281 10.9799 1.04607 10.941C1.13786 10.902 1.22126 10.8449 1.29151 10.7728L9.48881 2.64459V10.0702C9.48881 10.2757 9.56841 10.4727 9.71012 10.618C9.85182 10.7632 10.044 10.8449 10.2444 10.8449C10.4448 10.8449 10.637 10.7632 10.7787 10.618C10.9204 10.4727 11 10.2757 11 10.0702V0.774632Z" fill="white"/>
</svg>
